<?xml version="1.0" encoding="iso-8859-1"?>
<!-- Generator: Adobe Illustrator 19.0.0, SVG Export Plug-In . SVG Version: 6.00 Build 0)  -->
<svg version="1.1" id="Layer_1" xmlns="http://www.w3.org/2000/svg" xmlns:xlink="http://www.w3.org/1999/xlink" x="10px" y="10px"
	 viewBox="0 0 512.001 512.001" style="enable-background:new 0 0 512.001 512.001;" xml:space="preserve">
<g>
	<g>
		<path d="M94.118,169.105c-6.91,11.208-13.014,22.82-18.077,35l161,160.999v-46.48L94.118,169.105z"/>
	</g>
</g>
<g>
	<g>
		<path d="M63.67,245.361c-2.332,12.38-3.595,25.373-3.595,39.113c0,48.219,21.974,91.621,61.873,122.213
			c31.593,24.224,71.906,38.941,115.091,42.282v-30.238L63.67,245.361z"/>
	</g>
</g>
<g>
	<g>
		<path d="M140.859,108.159c-8.559,9.636-16.809,19.352-24.551,29.28l120.733,126.303v-57.479h0L140.859,108.159z"/>
	</g>
</g>
<g>
	<g>
		<path d="M339.708,73.976C317.957,50.726,295.51,26.727,274.962,0v152.025l70.418-71.983
			C343.494,78.024,341.603,76.001,339.708,73.976z"/>
	</g>
</g>
<g>
	<g>
		<path d="M172.294,73.976c-1.931,2.064-3.859,4.126-5.78,6.184l70.527,71.937V0C216.491,26.727,194.045,50.726,172.294,73.976z"/>
	</g>
</g>
<g>
	<g>
		<path d="M417.883,169.105L274.962,318.623v46.48L435.96,204.104C430.898,191.924,424.794,180.313,417.883,169.105z"/>
	</g>
</g>
<g>
	<g>
		<path d="M448.331,245.361l-173.37,173.37v30.238c43.186-3.342,83.498-18.058,115.091-42.282
			c39.899-30.592,61.873-73.994,61.873-122.213C451.926,270.733,450.663,257.74,448.331,245.361z"/>
	</g>
</g>
<g>
	<g>
		<path d="M371.038,108.042l-96.077,98.211v57.491h0l120.733-126.303C387.921,127.471,379.635,117.717,371.038,108.042z"/>
	</g>
</g>
<g>
	<g>
		<path d="M256.001,449.702c-6.369,0-12.695-0.248-18.96-0.732v63.031h37.921V448.97
			C268.696,449.454,262.371,449.702,256.001,449.702z"/>
	</g>
</g>
<g>
</g>
<g>
</g>
<g>
</g>
<g>
</g>
<g>
</g>
<g>
</g>
<g>
</g>
<g>
</g>
<g>
</g>
<g>
</g>
<g>
</g>
<g>
</g>
<g>
</g>
<g>
</g>
<g>
</g>
</svg>
